<?xml version="1.0" encoding="utf-8"?>
<!-- Generator: Adobe Illustrator 18.1.1, SVG Export Plug-In . SVG Version: 6.00 Build 0)  -->
<svg version="1.1" id="Laag_1" xmlns="http://www.w3.org/2000/svg" xmlns:xlink="http://www.w3.org/1999/xlink" x="0px" y="0px"
	 viewBox="0 0 300 300" enable-background="new 0 0 300 300" xml:space="preserve">
<g>
	<polygon fill="#E1E1E1" points="233.7,108.2 191.8,66.3 191.8,108.2 	"/>
	<polygon fill="#E1E1E1" points="66.3,191.8 108.2,233.7 108.2,191.8 	"/>
	<polygon fill="#E94540" points="24.5,24.5 24.5,150 150,24.5 	"/>
	<polygon fill="#E94540" points="66.3,191.8 66.3,191.8 66.3,191.8 	"/>
	<polygon fill="#E94540" points="191.8,24.5 150,24.5 191.8,66.3 	"/>
	<polygon fill="#51B0C5" points="275.5,275.5 275.5,150 150,275.5 	"/>
	<polygon fill="#E94540" points="233.7,108.2 233.7,108.2 233.7,108.2 	"/>
	<polygon fill="#51B0C5" points="108.2,275.5 150,275.5 108.2,233.7 	"/>
	<rect x="108.2" y="108.2" fill="#4C2D32" width="83.7" height="83.7"/>
	<polygon fill="#C53D35" points="150,24.5 24.5,150 66.3,150 66.3,191.8 108.2,191.8 108.2,108.2 191.8,108.2 191.8,66.3 	"/>
	<polygon fill="#972D25" points="66.3,150 24.5,150 66.3,191.8 	"/>
	<polygon fill="#489CAF" points="233.7,108.2 191.8,108.2 191.8,191.8 108.2,191.8 108.2,233.7 150,275.5 275.5,150 233.7,150 	"/>
	<polygon fill="#357582" points="233.7,150 275.5,150 233.7,108.2 	"/>
</g>
</svg>
